<?xml version="1.0" encoding="UTF-8"?>
<svg width="512" height="512" viewBox="0 0 512 512" xmlns="http://www.w3.org/2000/svg">
  <defs>
    <linearGradient id="gradient1" x1="0%" y1="0%" x2="100%" y2="100%">
      <stop offset="0%" style="stop-color:#667eea;stop-opacity:1" />
      <stop offset="100%" style="stop-color:#764ba2;stop-opacity:1" />
    </linearGradient>
    <linearGradient id="gradient2" x1="0%" y1="0%" x2="100%" y2="100%">
      <stop offset="0%" style="stop-color:#f093fb;stop-opacity:1" />
      <stop offset="100%" style="stop-color:#f5576c;stop-opacity:1" />
    </linearGradient>
  </defs>
  
  <!-- Background circle -->
  <circle cx="256" cy="256" r="240" fill="url(#gradient1)" stroke="none"/>
  
  <!-- Inner circle for contrast -->
  <circle cx="256" cy="256" r="200" fill="rgba(255,255,255,0.1)" stroke="none"/>
  
  <!-- Main "M" letter -->
  <path d="M 160 180 L 160 340 L 190 340 L 190 220 L 230 300 L 260 300 L 300 220 L 300 340 L 330 340 L 330 180 L 290 180 L 245 280 L 200 180 Z" 
        fill="white" stroke="none"/>
  
  <!-- Decorative elements - representing knowledge nodes -->
  <circle cx="380" cy="200" r="12" fill="url(#gradient2)" opacity="0.8"/>
  <circle cx="400" cy="240" r="8" fill="url(#gradient2)" opacity="0.6"/>
  <circle cx="360" cy="260" r="10" fill="url(#gradient2)" opacity="0.7"/>
  
  <circle cx="140" cy="320" r="10" fill="url(#gradient2)" opacity="0.7"/>
  <circle cx="120" cy="280" r="8" fill="url(#gradient2)" opacity="0.6"/>
  <circle cx="160" cy="360" r="12" fill="url(#gradient2)" opacity="0.8"/>
  
  <!-- Connection lines - representing knowledge links -->
  <line x1="380" y1="200" x2="400" y2="240" stroke="rgba(255,255,255,0.3)" stroke-width="2"/>
  <line x1="400" y1="240" x2="360" y2="260" stroke="rgba(255,255,255,0.3)" stroke-width="2"/>
  
  <line x1="140" y1="320" x2="120" y2="280" stroke="rgba(255,255,255,0.3)" stroke-width="2"/>
  <line x1="120" y1="280" x2="160" y2="360" stroke="rgba(255,255,255,0.3)" stroke-width="2"/>
  
  <!-- Subtle shadow effect -->
  <circle cx="256" cy="256" r="240" fill="none" stroke="rgba(0,0,0,0.1)" stroke-width="4"/>
</svg>
