<svg width="256" height="256" viewBox="0 0 256 256" fill="none" xmlns="http://www.w3.org/2000/svg">
  <rect width="256" height="256" rx="32" fill="url(#gradient)"/>
  <defs>
    <linearGradient id="gradient" x1="0%" y1="0%" x2="100%" y2="100%">
      <stop offset="0%" style="stop-color:#667eea;stop-opacity:1" />
      <stop offset="100%" style="stop-color:#764ba2;stop-opacity:1" />
    </linearGradient>
  </defs>
  
  <!-- Book icon scaled to size -->
  <g transform="translate(64, 64) scale(0.5)">
    <path d="M48 64C48 28.7 76.7 0 112 0H336C371.3 0 400 28.7 400 64V320C400 355.3 371.3 384 336 384H112C76.7 384 48 355.3 48 320V64Z" fill="white" opacity="0.9"/>
    <path d="M80 96H368V128H80V96Z" fill="url(#gradient)" opacity="0.7"/>
    <path d="M80 160H368V192H80V160Z" fill="url(#gradient)" opacity="0.5"/>
    <path d="M80 224H320V256H80V224Z" fill="url(#gradient)" opacity="0.3"/>
    <path d="M80 288H288V320H80V288Z" fill="url(#gradient)" opacity="0.2"/>
  </g>
</svg>